<svg width="19" height="21" viewBox="0 0 19 21" fill="none" xmlns="http://www.w3.org/2000/svg">
<path d="M9.24626 20.9469C7.30496 20.9268 5.43729 20.7595 3.61648 20.2306C2.69938 19.9629 1.80905 19.6281 1.03253 19.0391C0.617494 18.7244 0.276093 18.3496 0.108739 17.8542C-0.165722 17.0442 0.102045 16.3681 0.677742 15.7991C1.35385 15.1297 2.20401 14.7682 3.08764 14.467C3.84408 14.2126 4.6206 14.0184 5.41051 13.8913C5.62472 13.8578 5.70505 13.8176 5.55109 13.5833C4.79465 12.4185 4.01813 11.2671 3.32193 10.0622C1.54129 6.98958 2.61905 2.90615 5.6448 1.02509C8.90486 -0.996542 13.236 0.0343576 15.1237 3.55548C16.3555 5.85158 16.2617 8.18114 14.8827 10.4237C14.2334 11.4747 13.5573 12.5056 12.8879 13.5499C12.7004 13.8377 12.7071 13.8444 13.0552 13.9046C13.9991 14.0653 14.9162 14.3063 15.8132 14.6477C16.4826 14.9088 17.1253 15.2301 17.6608 15.7321C18.7118 16.7229 18.6582 18.0149 17.5269 18.9253C16.7169 19.5813 15.7731 19.9495 14.7957 20.2306C12.9682 20.7528 11.0872 20.9268 9.24626 20.9469ZM9.20609 17.0308C9.25295 16.9639 9.27973 16.9371 9.29981 16.9036C10.719 14.6812 12.1314 12.4587 13.5506 10.2429C13.9255 9.66055 14.2937 9.07816 14.4945 8.40874C15.6793 4.47928 12.3858 0.676996 8.34255 1.29955C4.43316 1.90203 2.41153 6.44736 4.56705 9.77435C5.55778 11.3006 6.52843 12.8336 7.50578 14.3665C8.06139 15.2368 8.6237 16.1204 9.20609 17.0308ZM9.16593 19.6951C9.44708 19.6951 9.72824 19.7018 10.0094 19.6951C11.8436 19.6281 13.651 19.3939 15.3714 18.7311C15.9605 18.5035 16.5295 18.2358 16.9512 17.7538C17.2458 17.4191 17.2391 17.1178 16.9579 16.7764C16.7303 16.5087 16.4492 16.3078 16.1412 16.1472C14.8894 15.4711 13.5171 15.1966 12.1314 14.9958C11.9842 14.9757 11.9239 15.0493 11.857 15.1565C11.1742 16.2409 10.4847 17.3187 9.79518 18.3964C9.45378 18.932 8.95172 18.932 8.61032 18.3964C7.93421 17.3387 7.2581 16.2878 6.59537 15.2234C6.47488 15.0293 6.34769 14.969 6.13348 15.0092C5.61803 15.1163 5.09588 15.1899 4.58043 15.3104C3.61648 15.538 2.66591 15.8259 1.84922 16.415C1.01914 17.0107 1.03253 17.5463 1.876 18.1354C2.53202 18.5972 3.27507 18.8583 4.03821 19.0725C5.71844 19.5411 7.43214 19.7085 9.16593 19.6951Z" fill="#4502C7"/>
<path d="M12.2652 6.8022C12.2585 8.48243 10.8862 9.85473 9.20599 9.86143C7.51237 9.86143 6.13338 8.46235 6.14007 6.75534C6.15346 5.0751 7.53915 3.7028 9.21269 3.7095C10.9063 3.71619 12.2719 5.10858 12.2652 6.8022ZM9.20599 8.61631C10.2168 8.61631 11.0536 7.79293 11.0536 6.78881C11.0536 5.78468 10.2235 4.9613 9.20599 4.9613C8.19517 4.9613 7.35841 5.78468 7.35841 6.78881C7.3651 7.79293 8.19517 8.61631 9.20599 8.61631Z" fill="#4502C7"/>
</svg>
