<svg width="18" height="20" viewBox="0 0 18 20" fill="none" xmlns="http://www.w3.org/2000/svg">
<path d="M9.10257 19.7565C7.55378 19.7565 5.99879 19.7565 4.44999 19.7565C3.80569 19.7565 3.18617 19.6697 2.61002 19.3662C1.57543 18.8272 0.999275 17.9537 0.918738 16.8075C0.813419 15.2835 0.986885 13.7781 1.53206 12.3346C1.94094 11.2629 2.55427 10.3584 3.65081 9.86894C4.14643 9.64591 4.66682 9.55918 5.19961 9.5406C5.41024 9.5344 5.6023 9.62113 5.77576 9.72645C6.02976 9.88133 6.28377 10.0486 6.53777 10.2097C7.50422 10.8354 8.54501 11.1699 9.70351 11.0027C10.5337 10.885 11.2709 10.5318 11.9586 10.061C12.2993 9.82557 12.6338 9.5344 13.0799 9.5406C13.8233 9.55299 14.5172 9.73884 15.1429 10.1601C15.8987 10.6743 16.3695 11.3992 16.6855 12.2293C17.2678 13.7471 17.4847 15.3331 17.3174 16.95C17.1625 18.4431 15.9978 19.5458 14.5048 19.7069C14.2074 19.7379 13.91 19.7503 13.6065 19.7503C12.1072 19.7565 10.608 19.7565 9.10257 19.7565ZM9.12116 18.598C10.131 18.598 11.147 18.598 12.1568 18.598C12.8569 18.598 13.5631 18.6103 14.2632 18.5732C15.3969 18.505 16.1651 17.6935 16.1961 16.5659C16.2084 16.1818 16.2023 15.7915 16.1775 15.4074C16.1155 14.4348 15.9668 13.4807 15.5765 12.5824C15.2854 11.901 14.8951 11.2876 14.1888 10.9593C13.6374 10.6991 13.0861 10.5628 12.5719 11.046C12.5285 11.0832 12.4728 11.1142 12.4232 11.1451C11.085 12.0373 9.62916 12.4276 8.03081 12.0992C7.10773 11.9134 6.28377 11.4921 5.53415 10.9407C5.24298 10.7301 4.9518 10.6743 4.61726 10.7672C4.41282 10.823 4.20838 10.885 4.01633 10.9841C3.4092 11.2876 3.04369 11.8142 2.7711 12.4028C2.13299 13.7533 2.01528 15.203 2.06485 16.6651C2.08963 17.3651 2.42417 17.9227 3.04988 18.282C3.49593 18.536 3.98535 18.5918 4.48716 18.5918C6.02976 18.5918 7.57236 18.598 9.12116 18.598Z" fill="#4502C7"/>
<path d="M13.7614 4.75171C13.7676 7.38466 11.6488 9.50341 9.00968 9.50961C6.35815 9.5158 4.24559 7.39705 4.25178 4.74551C4.25798 2.10636 6.36434 0 9.00349 0C11.6426 0 13.7614 2.11875 13.7614 4.75171ZM8.9911 1.1585C7.00244 1.16469 5.39789 2.76925 5.39789 4.7579C5.39789 6.74655 7.02723 8.36969 9.01588 8.3573C11.0355 8.34491 12.6153 6.74655 12.5967 4.73312C12.5843 2.73208 10.9921 1.1523 8.9911 1.1585Z" fill="#4502C7"/>
</svg>
