<svg width="22" height="22" viewBox="0 0 22 22" fill="none" xmlns="http://www.w3.org/2000/svg">
<path d="M21.5552 8.73678V9.79578C21.5552 10.1267 21.3346 10.3474 21.0257 10.3474C20.6948 10.3474 20.4962 10.1267 20.4962 9.75166C20.4962 8.73678 20.4962 7.7219 20.4962 6.68496V5.07439C20.4962 3.68445 19.6358 2.80195 18.2458 2.80195H18.0252C17.8487 2.80195 17.6943 2.80195 17.5398 2.80195C17.3633 2.80195 17.2309 2.84607 17.1206 2.93432C16.9662 3.08876 16.9662 3.28732 16.9882 3.35351C16.9882 3.55208 16.9882 3.79476 16.9662 4.03745C16.9441 4.32427 16.7235 4.52283 16.4367 4.52283C16.1499 4.52283 15.9513 4.32427 15.9072 4.03745C15.8851 3.79476 15.8851 3.55208 15.8851 3.33145C15.8851 3.26526 15.8851 3.08876 15.7527 2.93432C15.6204 2.77989 15.4218 2.77989 15.3556 2.77989C14.0319 2.77989 12.8625 2.77989 11.8035 2.77989C11.7374 2.77989 11.5388 2.77989 11.4064 2.93432C11.252 3.11082 11.252 3.30939 11.252 3.37557C11.252 3.53001 11.252 3.68445 11.252 3.83889V3.9492C11.252 4.3022 11.0534 4.52283 10.7445 4.54489C10.4357 4.54489 10.215 4.3022 10.193 3.99333C10.193 3.79476 10.193 3.57414 10.193 3.35351C10.193 3.28732 10.193 3.11082 10.0606 2.95639C9.92822 2.80195 9.72966 2.80195 9.66347 2.80195C8.47209 2.80195 7.28071 2.80195 6.17758 2.80195C6.1114 2.80195 5.91283 2.80195 5.78046 2.95639C5.64808 3.11082 5.64808 3.28732 5.64808 3.35351C5.64808 3.5962 5.64808 3.79476 5.64808 3.99333C5.62602 4.32427 5.40539 4.56695 5.09652 4.54489C4.72145 4.54489 4.58908 4.23601 4.58908 3.9492C4.58908 3.88301 4.58908 3.81683 4.61114 3.72858C4.6332 3.48589 4.67733 3.13289 4.41258 2.91226C4.19195 2.73576 3.90514 2.75782 3.66245 2.77989C3.5742 2.77989 3.50801 2.80195 3.44182 2.77989C2.42695 2.77989 1.69888 3.17701 1.27969 3.97126C1.12525 4.25808 1.05906 4.58902 1.05906 4.96408V7.63365C1.05906 11.1857 1.05906 14.7599 1.05906 18.3119C1.05906 19.5695 1.94157 20.452 3.2212 20.452C5.36127 20.452 7.5234 20.452 9.66347 20.452C10.0165 20.452 10.1488 20.5844 10.215 20.7168C10.3033 20.8933 10.3253 21.0698 10.215 21.2463C10.1268 21.4228 9.95028 21.511 9.72966 21.511C9.33253 21.511 8.91334 21.511 8.53828 21.511C8.36178 21.511 8.18528 21.511 8.00878 21.511H6.53059C5.40539 21.511 4.2802 21.511 3.15501 21.511C1.65475 21.511 0.375125 20.4961 0.0662488 19.0621C0.0221236 18.8414 6.10352e-05 18.5767 6.10352e-05 18.2899C6.10352e-05 16.6131 6.10352e-05 14.9364 6.10352e-05 13.2596V9.66341C6.10352e-05 8.09697 6.10352e-05 6.50846 6.10352e-05 4.91995C6.10352e-05 3.4197 1.01494 2.14007 2.44901 1.80913C2.8682 1.72088 3.30945 1.72088 3.77276 1.74294H3.97133C4.1037 1.74294 4.2802 1.74294 4.43464 1.58851C4.58908 1.43407 4.56702 1.19138 4.56702 1.12519C4.56702 0.992816 4.56702 0.860441 4.56702 0.728065V0.59569C4.56702 0.264751 4.76558 0.0441252 5.07445 0.0220626C5.36127 0.0220626 5.62602 0.242688 5.64808 0.573627C5.67014 0.794253 5.64808 1.01488 5.64808 1.2355C5.64808 1.30169 5.64808 1.47819 5.78046 1.63263C5.91283 1.76501 6.1114 1.76501 6.15552 1.76501C7.32484 1.76501 8.49415 1.76501 9.68553 1.76501C9.75172 1.76501 9.92822 1.76501 10.0606 1.63263C10.193 1.47819 10.193 1.30169 10.193 1.2355C10.193 1.03694 10.193 0.838378 10.193 0.617752C10.193 0.264751 10.4357 0.0220626 10.7445 0.0220626C11.1196 0 11.252 0.308876 11.252 0.59569C11.252 0.661877 11.252 0.728065 11.252 0.816315C11.2299 1.059 11.1858 1.36788 11.4064 1.58851C11.6491 1.80913 11.958 1.78707 12.2007 1.74294C12.2669 1.74294 12.3551 1.72088 12.3992 1.72088C12.8625 1.72088 13.3038 1.72088 13.7671 1.72088C14.2746 1.72088 14.782 1.72088 15.3115 1.72088C15.4439 1.72088 15.6204 1.69882 15.7527 1.56644C15.9072 1.41201 15.8851 1.19138 15.8851 1.12519C15.8631 0.926628 15.8851 0.706003 15.8851 0.551564C15.9072 0.220626 16.1057 0 16.4146 0C16.7235 0 16.9221 0.220626 16.9441 0.573627C16.9441 0.750128 16.9662 0.948691 16.9441 1.10313C16.9441 1.16932 16.9221 1.38994 17.0765 1.54438C17.2089 1.69882 17.4074 1.72088 17.5398 1.72088C17.6501 1.72088 17.7384 1.72088 17.8487 1.72088C18.2238 1.72088 18.5547 1.72088 18.9077 1.76501C20.3638 1.98563 21.5331 3.28732 21.5552 4.72139C21.5552 6.06721 21.5552 7.43509 21.5552 8.73678Z" fill="#4502C7"/>
<path d="M16.6371 11.7166H16.5929C13.9234 11.7166 11.7392 13.9007 11.6951 16.6144C11.673 17.8941 12.1804 19.1296 13.1071 20.0783C14.0337 21.027 15.2692 21.5565 16.5709 21.5565C17.8726 21.5565 19.1301 21.0711 20.0568 20.1445C21.0055 19.2178 21.5129 17.9823 21.535 16.6806C21.557 13.9449 19.3728 11.7386 16.6371 11.7166ZM19.2846 19.3943C18.5565 20.1003 17.6078 20.4754 16.615 20.4754C16.5709 20.4754 16.5488 20.4754 16.5268 20.4754C14.4529 20.4313 12.7541 18.6442 12.7982 16.5924C12.7982 16.0629 12.9306 15.5554 13.1291 15.0921C13.3277 14.6288 13.6145 14.2096 13.9896 13.8566C14.7176 13.1506 15.6884 12.7756 16.6812 12.7976C18.7992 12.8417 20.5201 14.6068 20.476 16.7248C20.4539 17.7396 20.0347 18.6883 19.2846 19.3943Z" fill="#4502C7"/>
<path d="M5.62572 12.5549C5.62572 12.6873 5.55953 12.8196 5.44922 12.93C5.3389 13.0403 5.20653 13.1065 5.07415 13.1065C4.78734 13.1065 4.54465 12.8638 4.54465 12.5549C4.54465 12.246 4.76528 12.0254 5.07415 12.0254C5.38303 12.0254 5.62572 12.2681 5.62572 12.5549Z" fill="#4502C7"/>
<path d="M9.39828 16.3283C9.39828 16.4828 9.3321 16.5931 9.24385 16.7034C9.1556 16.8137 9.02322 16.8578 8.86878 16.8578C8.58197 16.8578 8.33928 16.6151 8.33928 16.3283C8.33928 16.196 8.3834 16.0415 8.49372 15.9533C8.60403 15.843 8.73641 15.7988 8.86878 15.7988C9.15559 15.7988 9.39828 16.0415 9.39828 16.3283Z" fill="#4502C7"/>
<path d="M9.39856 12.5549C9.39856 12.8417 9.15588 13.1065 8.86906 13.1065C8.73669 13.1065 8.60431 13.0623 8.494 12.952C8.38368 12.8417 8.3175 12.7093 8.3175 12.5549C8.3175 12.2681 8.56019 12.0254 8.847 12.0254C9.17794 12.0254 9.39856 12.246 9.39856 12.5549Z" fill="#4502C7"/>
<path d="M5.62572 16.3282C5.62572 16.4606 5.55953 16.5929 5.44922 16.7032C5.3389 16.8136 5.20653 16.8797 5.05209 16.8577C4.76528 16.8577 4.54465 16.615 4.54465 16.3061C4.54465 16.0193 4.78734 15.7766 5.07415 15.7766C5.38303 15.7987 5.62572 16.0414 5.62572 16.3282Z" fill="#4502C7"/>
<path d="M5.6265 8.78048C5.6265 9.06729 5.38381 9.30998 5.097 9.30998C4.81019 9.30998 4.5675 9.08935 4.5675 8.80254C4.5675 8.49366 4.78812 8.27304 5.07494 8.25098H5.097C5.22937 8.25098 5.38381 8.31716 5.49413 8.40541C5.58238 8.51573 5.6265 8.6481 5.6265 8.78048Z" fill="#4502C7"/>
<path d="M9.3977 8.78252C9.3977 9.06934 9.15502 9.28996 8.8682 9.28996C8.58139 9.28996 8.3387 9.04727 8.3387 8.76046C8.3387 8.62808 8.40489 8.47365 8.49314 8.3854C8.60345 8.29714 8.73583 8.23096 8.8682 8.23096H8.89026C9.17708 8.25302 9.3977 8.49571 9.3977 8.78252Z" fill="#4502C7"/>
<path d="M13.1711 8.78048C13.1711 9.08935 12.9284 9.30998 12.6416 9.30998C12.3548 9.30998 12.1121 9.06729 12.1121 8.78048C12.1121 8.6481 12.1562 8.51573 12.2666 8.40541C12.3769 8.2951 12.5093 8.25098 12.6637 8.25098C12.9505 8.25098 13.1711 8.4716 13.1711 8.78048Z" fill="#4502C7"/>
<path d="M16.945 8.78048C16.945 9.08935 16.7244 9.30998 16.4376 9.30998C16.3052 9.30998 16.1508 9.26585 16.0405 9.15554C15.9302 9.04523 15.886 8.91285 15.886 8.78048C15.886 8.49366 16.1287 8.25098 16.4155 8.25098C16.57 8.25098 16.7023 8.31716 16.7906 8.40541C16.8788 8.49366 16.945 8.62604 16.945 8.78048Z" fill="#4502C7"/>
<path d="M18.313 16.9445C18.2247 17.0769 18.0924 17.1431 17.9379 17.1431C17.607 17.1652 17.254 17.1431 16.923 17.1431H16.6804C16.3053 17.1431 16.1067 16.9445 16.0847 16.5695C16.0847 16.3709 16.0847 16.1944 16.0847 15.9958C16.0847 15.9076 16.0847 15.8193 16.0847 15.709V15.4663C16.0847 15.2898 16.0847 15.0913 16.0847 14.9148C16.0847 14.5397 16.3053 14.3191 16.6362 14.3191C16.9451 14.3191 17.1437 14.5397 17.1437 14.9368C17.1437 14.981 17.1437 15.0472 17.1437 15.1133C17.1437 15.2457 17.1437 15.3781 17.1437 15.4884C17.1437 15.5546 17.1216 15.7752 17.276 15.9297C17.4084 16.0841 17.629 16.1062 17.7173 16.1062H17.7394C18.2027 16.1062 18.313 16.3047 18.3792 16.5033C18.4454 16.6577 18.4233 16.8122 18.313 16.9445Z" fill="#4502C7"/>
</svg>
