<svg width="32" height="30" viewBox="0 0 32 30" fill="none" xmlns="http://www.w3.org/2000/svg">
<path d="M12.0208 28.1527C12.7126 28.1527 13.2734 27.5919 13.2734 26.9001C13.2734 26.2083 12.7126 25.6475 12.0208 25.6475C11.329 25.6475 10.7682 26.2083 10.7682 26.9001C10.7682 27.5919 11.329 28.1527 12.0208 28.1527Z" stroke="#4502C7" stroke-width="3" stroke-linecap="round" stroke-linejoin="round"/>
<path d="M25.7994 28.1527C26.4912 28.1527 27.052 27.5919 27.052 26.9001C27.052 26.2083 26.4912 25.6475 25.7994 25.6475C25.1076 25.6475 24.5468 26.2083 24.5468 26.9001C24.5468 27.5919 25.1076 28.1527 25.7994 28.1527Z" stroke="#4502C7" stroke-width="3" stroke-linecap="round" stroke-linejoin="round"/>
<path d="M1.99994 1.84814H7.01036L10.3673 18.6205C10.4819 19.1972 10.7956 19.7153 11.2536 20.0839C11.7116 20.4526 12.2847 20.6485 12.8726 20.6372H25.0479C25.6357 20.6485 26.2088 20.4526 26.6668 20.0839C27.1248 19.7153 27.4385 19.1972 27.5531 18.6205L29.5573 8.11117H8.26297" stroke="#4502C7" stroke-width="3" stroke-linecap="round" stroke-linejoin="round"/>
</svg>
